<svg width="580" height="400" xmlns="http://www.w3.org/2000/svg">
 <!-- Created with SVG Editor - http://github.com/mzalive/SVG Editor/ -->

 <g>
  <title>background</title>
  <rect fill="none" id="canvas_background" height="402" width="582" y="-1" x="-1"/>
  <g display="none" overflow="visible" y="0" x="0" height="100%" width="100%" id="canvasGrid">
   <rect fill="url(#gridpattern)" stroke-width="0" y="0" x="0" height="100%" width="100%"/>
  </g>
 </g>
 <g>
  <title>Layer 1</title>
  <g stroke="null" id="svg_10">
   <path stroke="null" id="svg_9" d="m289.999997,34.809037c-129.72405,0 -234.861081,68.657496 -234.861081,153.391613c0,36.578 19.632919,70.05867 52.293288,96.38598c-11.467826,37.167968 -49.816237,70.279908 -50.27495,70.648637c-2.018337,1.696157 -2.568793,4.20352 -1.376139,6.415899s3.761447,3.539806 6.697211,3.539806c60.82535,0 106.421427,-23.451218 128.99011,-37.905428c29.999833,9.070754 63.302401,14.306718 98.531563,14.306718c129.72405,0 234.861081,-68.657496 234.861081,-153.391613s-105.137031,-153.391613 -234.861081,-153.391613zm-117.430541,176.990323c-16.238442,0 -29.357635,-10.545673 -29.357635,-23.59871s13.119193,-23.59871 29.357635,-23.59871s29.357635,10.545673 29.357635,23.59871s-13.119193,23.59871 -29.357635,23.59871zm117.430541,0c-16.238442,0 -29.357635,-10.545673 -29.357635,-23.59871s13.119193,-23.59871 29.357635,-23.59871s29.357635,10.545673 29.357635,23.59871s-13.119193,23.59871 -29.357635,23.59871zm117.430541,0c-16.238442,0 -29.357635,-10.545673 -29.357635,-23.59871s13.119193,-23.59871 29.357635,-23.59871s29.357635,10.545673 29.357635,23.59871s-13.119193,23.59871 -29.357635,23.59871z" fill="#ffffff"/>
  </g>
 </g>
</svg>