<svg width="580" height="400" xmlns="http://www.w3.org/2000/svg">
 <!-- Created with SVG Editor - http://github.com/mzalive/SVG Editor/ -->

 <g>
  <title>background</title>
  <rect fill="none" id="canvas_background" height="402" width="582" y="-1" x="-1"/>
  <g display="none" overflow="visible" y="0" x="0" height="100%" width="100%" id="canvasGrid">
   <rect fill="url(#gridpattern)" stroke-width="0" y="0" x="0" height="100%" width="100%"/>
  </g>
 </g>
 <g>
  <title>Layer 1</title>
  <g stroke="null" id="svg_5">
   <path stroke="null" id="svg_4" d="m484.312862,196.228024l-80.69915,-23.542349l0,-70.562014c0,-9.755117 -7.769173,-18.469689 -19.548241,-21.916497l-83.539493,-24.387793c-6.766699,-2.016058 -14.285253,-2.016058 -21.135492,0l-83.539493,24.387793c-11.779068,3.446808 -19.548241,12.161379 -19.548241,21.916497l0,70.562014l-80.69915,23.542349c-11.695529,3.446808 -19.464702,12.161379 -19.464702,21.916497l0,71.60256c0,8.84464 6.432541,16.973904 16.624359,20.940985l83.539493,32.517057c8.437489,3.31674 18.462228,3.31674 26.899717,0l86.797533,-33.81774l86.797533,33.81774c8.437489,3.31674 18.462228,3.31674 26.899717,0l83.539493,-32.517057c10.191818,-3.967081 16.624359,-12.096345 16.624359,-20.940985l0,-71.60256c0,-9.755117 -7.769173,-18.469689 -19.548241,-21.916497zm-109.102578,-23.022077l-71.008569,20.745883l0,-44.353266l71.008569,-24.062622l0,47.670006zm-170.420565,-71.992765l85.210283,-24.843032l85.210283,24.843032l0,0.390205l-85.210283,26.924123l-85.210283,-26.924123l0,-0.390205zm70.173174,189.314308l-71.008569,27.639499l0,-51.441985l71.008569,-25.233236l0,49.035722zm0,-72.838208l-85.210283,26.924123l-85.210283,-26.924123l0,-0.390205l85.210283,-24.843032l85.210283,24.843032l0,0.390205zm200.494783,72.838208l-71.008569,27.639499l0,-51.441985l71.008569,-25.233236l0,49.035722zm0,-72.838208l-85.210283,26.924123l-85.210283,-26.924123l0,-0.390205l85.210283,-24.843032l85.210283,24.843032l0,0.390205z" fill="#ffffff"/>
  </g>
 </g>
</svg>