<svg width="580" height="400" xmlns="http://www.w3.org/2000/svg">
 <!-- Created with SVG Editor - http://github.com/mzalive/SVG Editor/ -->

 <g>
  <title>background</title>
  <rect fill="none" id="canvas_background" height="402" width="582" y="-1" x="-1"/>
  <g display="none" overflow="visible" y="0" x="0" height="100%" width="100%" id="canvasGrid">
   <rect fill="url(#gridpattern)" stroke-width="0" y="0" x="0" height="100%" width="100%"/>
  </g>
 </g>
 <g>
  <title>Layer 1</title>
  <g stroke="null" id="svg_5">
   <path stroke="null" id="svg_4" d="m437.775851,63.32807a1.072761,1.032741 0 0 0 -0.546393,-0.481946a346.905794,333.964345 0 0 0 -85.596295,-25.547259a1.298756,1.250305 0 0 0 -1.375279,0.62653a241.343276,232.339876 0 0 0 -10.65609,21.067917a320.289169,308.340663 0 0 0 -96.137957,0a221.375622,213.117123 0 0 0 -10.824156,-21.067917a1.351679,1.301254 0 0 0 -1.375994,-0.62653a345.921714,333.016977 0 0 0 -85.597725,25.547947a1.224378,1.178702 0 0 0 -0.563557,0.465422c-54.516986,78.376781 -69.451246,154.826466 -62.125005,230.329473a1.44179,1.388004 0 0 0 0.547108,0.946679a348.765961,335.755118 0 0 0 105.005398,51.078682a1.35883,1.308139 0 0 0 1.475404,-0.465422a249.023527,239.733613 0 0 0 21.481676,-33.627424a1.330223,1.280599 0 0 0 -0.728762,-1.781822a229.694524,221.125685 0 0 1 -32.803593,-15.04566a1.348103,1.297811 0 0 1 -0.132307,-2.152232c2.204166,-1.589733 4.409762,-3.243495 6.514518,-4.913782a1.300901,1.252371 0 0 1 1.35883,-0.176254c68.820462,30.236591 143.327987,30.236591 211.333867,0a1.295895,1.247551 0 0 1 1.375994,0.160419c2.105472,1.670286 4.310353,3.339884 6.530967,4.929617a1.347387,1.297123 0 0 1 -0.115858,2.152232a215.558398,207.516913 0 0 1 -32.819327,15.029824a1.340951,1.290926 0 0 0 -0.715174,1.797658a279.672302,269.239023 0 0 0 21.465227,33.608835a1.333084,1.283353 0 0 0 1.475404,0.481946a347.60881,334.641134 0 0 0 105.174894,-51.076616a1.345957,1.295746 0 0 0 0.547108,-0.930844c8.770892,-87.289335 -14.683949,-163.112492 -62.172922,-230.329473zm-216.011103,184.340139c-20.720016,0 -37.792646,-18.30499 -37.792646,-40.785696s16.741504,-40.787073 37.792646,-40.787073c21.215632,0 38.123056,18.465409 37.791931,40.785696c0,22.482083 -16.742219,40.787073 -37.791931,40.787073zm139.730663,0c-20.719301,0 -37.791931,-18.30499 -37.791931,-40.785696s16.741504,-40.787073 37.791931,-40.787073c21.217062,0 38.123771,18.465409 37.792646,40.785696c0,22.482083 -16.575584,40.787073 -37.792646,40.787073z" fill="#ffffff"/>
  </g>
 </g>
</svg>