<svg width="580" height="400" xmlns="http://www.w3.org/2000/svg">
 <!-- Created with SVG Editor - http://github.com/mzalive/SVG Editor/ -->

 <g>
  <title>background</title>
  <rect fill="none" id="canvas_background" height="402" width="582" y="-1" x="-1"/>
  <g display="none" overflow="visible" y="0" x="0" height="100%" width="100%" id="canvasGrid">
   <rect fill="url(#gridpattern)" stroke-width="0" y="0" x="0" height="100%" width="100%"/>
  </g>
 </g>
 <g>
  <title>Layer 1</title>
  <g stroke="null" id="svg_10">
   <path stroke="null" id="svg_9" d="m298.048126,109.419051c-61.252491,0 -110.65898,38.656248 -110.65898,86.580953s49.40649,86.580953 110.65898,86.580953s110.65898,-38.656248 110.65898,-86.580953s-49.40649,-86.580953 -110.65898,-86.580953zm0,142.869875c-39.582977,0 -71.942784,-25.243359 -71.942784,-56.288922s32.263497,-56.288922 71.942784,-56.288922s71.942784,25.243359 71.942784,56.288922s-32.359806,56.288922 -71.942784,56.288922zm140.996299,-146.41148c0,11.227643 -11.557074,20.194687 -25.810798,20.194687c-14.350033,0 -25.810798,-9.042397 -25.810798,-20.194687s11.557074,-20.194687 25.810798,-20.194687s25.810798,9.042397 25.810798,20.194687zm73.291109,20.4961c-1.637252,-27.051838 -9.534586,-51.014191 -34.863839,-70.756758c-25.232944,-19.742567 -55.859189,-25.921538 -90.434102,-27.277898c-35.634311,-1.58242 -142.440933,-1.58242 -178.075244,0c-34.478603,1.281006 -65.104848,7.459978 -90.434102,27.202545s-33.130278,43.70492 -34.863839,70.756758c-2.022488,27.880725 -2.022488,111.447545 0,139.328269c1.637252,27.051838 9.534586,51.014191 34.863839,70.756758s55.859189,25.921538 90.434102,27.277898c35.634311,1.58242 142.440933,1.58242 178.075244,0c34.574912,-1.281006 65.201157,-7.459978 90.434102,-27.277898c25.232944,-19.742567 33.130278,-43.70492 34.863839,-70.756758c2.022488,-27.880725 2.022488,-111.372192 0,-139.252916zm-46.035677,169.16818c-7.512098,14.769249 -22.054749,26.147598 -41.027612,32.10051c-28.411139,8.816337 -95.827403,6.781798 -127.224119,6.781798s-98.909289,1.959186 -127.224119,-6.781798c-18.876554,-5.877558 -33.419205,-17.255908 -41.027612,-32.10051c-11.268147,-22.229226 -8.667805,-74.976543 -8.667805,-99.541722s-2.504033,-77.387849 8.667805,-99.541722c7.512098,-14.769249 22.054749,-26.147598 41.027612,-32.10051c28.411139,-8.816337 95.827403,-6.781798 127.224119,-6.781798s98.909289,-1.959186 127.224119,6.781798c18.876554,5.877558 33.419205,17.255908 41.027612,32.10051c11.268147,22.229226 8.667805,74.976543 8.667805,99.541722s2.600342,77.387849 -8.667805,99.541722z" fill="#ffffff"/>
  </g>
 </g>
</svg>