<svg width="580" height="400" xmlns="http://www.w3.org/2000/svg">
 <!-- Created with SVG Editor - http://github.com/mzalive/SVG Editor/ -->

 <g>
  <title>Layer 1</title>
  <g stroke="null" id="svg_10">
   <path stroke="null" id="svg_9" d="m551.675805,36.788888c3.836366,-14.609789 0,-25.362594 -18.456032,-25.362594l-61.070801,0c-15.552836,0 -22.70714,9.233387 -26.543506,19.518678c0,0 -31.105671,85.438048 -75.068353,140.838368c-14.204923,16.012329 -20.737114,21.154975 -28.513532,21.154975c-3.836366,0 -9.746444,-5.142646 -9.746444,-19.752435l0,-136.396992c0,-17.531747 -4.354794,-25.362594 -17.211805,-25.362594l-96.012838,0c-9.746444,0 -15.552836,8.181482 -15.552836,15.778572c0,16.596721 21.981341,20.453705 24.262424,67.205031l0,101.450377c0,22.20688 -3.525309,26.297621 -11.301727,26.297621c-20.737114,0 -71.128302,-85.788683 -100.989746,-183.966466c-6.013763,-19.051165 -11.923841,-26.765134 -27.580362,-26.765134l-61.070801,0c-17.419176,0 -20.944485,9.233387 -20.944485,19.518678c0,18.233017 20.737114,108.81371 96.531266,228.497104c50.494873,81.697942 121.623174,125.994823 186.322971,125.994823c38.882089,0 43.651625,-9.817778 43.651625,-26.765134c0,-78.074714 -3.525309,-85.438048 15.967578,-85.438048c9.020645,0 24.57348,5.142646 60.86343,44.530638c41.474228,46.751326 48.317476,67.672544 71.543044,67.672544l61.070801,0c17.419176,0 26.232449,-9.817778 21.151856,-29.219579c-11.612784,-40.790532 -90.102761,-124.709161 -93.62807,-130.31932c-9.020645,-13.090371 -6.428505,-18.934287 0,-30.622118c0.103686,-0.116878 74.653611,-118.397732 82.326343,-158.486994z" fill="#ffffff"/>
  </g>
 </g>
</svg>