<svg width="580" height="400" xmlns="http://www.w3.org/2000/svg">
 <!-- Created with SVG Editor - http://github.com/mzalive/SVG Editor/ -->

 <g>
  <title>background</title>
  <rect fill="none" id="canvas_background" height="402" width="582" y="-1" x="-1"/>
  <g display="none" overflow="visible" y="0" x="0" height="100%" width="100%" id="canvasGrid">
   <rect fill="url(#gridpattern)" stroke-width="0" y="0" x="0" height="100%" width="100%"/>
  </g>
 </g>
 <g>
  <title>Layer 1</title>
  <g stroke="null" id="svg_20">
   <path stroke="null" id="svg_19" d="m527.76207,89.184205c-5.707452,-19.866988 -22.523583,-35.513606 -43.874962,-40.82351c-38.700908,-9.64872 -193.887095,-9.64872 -193.887095,-9.64872s-155.185278,0 -193.887095,9.64872c-21.351379,5.310744 -38.167509,20.956522 -43.874962,40.82351c-10.369917,36.010071 -10.369917,111.141727 -10.369917,111.141727s0,75.131656 10.369917,111.141727c5.707452,19.866988 22.523583,34.861734 43.874962,40.171638c38.701816,9.64872 193.887095,9.64872 193.887095,9.64872s155.185278,0 193.887095,-9.64872c21.351379,-5.309904 38.167509,-20.30465 43.874962,-40.171638c10.369917,-36.010071 10.369917,-111.141727 10.369917,-111.141727s0,-75.131656 -10.369917,-111.141727zm-288.516675,179.35564l0,-136.427825l129.704833,68.215592l-129.704833,68.212232z" fill="#ffffff"/>
  </g>
 </g>
</svg>